<svg version="1.1" xmlns="http://www.w3.org/2000/svg" viewBox="0 0 2048 1170" preserveAspectRatio="xMidYMid slice">
<defs>
	<linearGradient id="Gradient1" gradientUnits="userSpaceOnUse" x1="1658.05" y1="437.613" x2="2030.41" y2="349.534">
		<stop class="stop0" offset="0" stop-opacity="1" stop-color="rgb(5,1,6)"/>
		<stop class="stop1" offset="1" stop-opacity="1" stop-color="rgb(22,31,49)"/>
	</linearGradient>
</defs>
<path transform="translate(0,0)" fill="rgb(11,16,20)" d="M 0 0 L 573.979 0 L 655.026 0 L 703.194 0 L 748.205 0 L 763.168 0 L 781.135 0 L 1197.71 0 L 1205.55 0 L 1213.72 0 L 1217.07 0 L 1261.04 0 L 1315.51 0 L 1350.57 0 L 1377.75 0 L 1386.21 0 L 1468.52 0 L 1472.17 0 L 1842.19 0 L 1845.54 0 L 1877.21 0 L 1881.26 0 L 2048 0 L 2048 183.889 L 2048 187.704 L 2048 319.528 L 2048 331.335 L 2048 402.921 L 2048 406.703 L 2048 745.091 L 2048 752.416 L 2048 960.66 L 2048 965.474 L 2048 1071.61 L 2048 1076.13 L 2048 1101.16 L 2048 1170 L 0 1170 L 0 924.573 L 0 900.875 L 0 0 z"/>
<path transform="translate(0,0)" fill="rgb(18,26,33)" d="M 0 0 L 573.979 0 C 517.535 41.9692 467.675 123.05 458.845 192.722 C 455.013 222.959 455.947 255.727 455.922 286.501 L 455.903 424.091 L 456.001 897.926 C 445.973 897.897 427.497 897.334 418.032 898.011 C 366.37 895.751 313.967 897.258 262.254 897.508 L 113.901 896.841 C 92.7351 896.723 71.569 896.938 50.4102 897.486 C 45.4269 897.624 21.9558 898.897 19.0548 898.504 L 17.3363 899.638 C 30.6026 899.699 178.163 899.159 180.756 900.649 C 164.606 901.571 137.456 900.687 120.158 900.691 L 0 900.875 L 0 0 z"/>
<path transform="translate(0,0)" fill="rgb(231,237,242)" d="M 655.026 0 L 703.194 0 L 748.205 0 L 763.168 0 L 781.135 0 L 1197.71 0 L 1205.55 0 L 1213.72 0 L 1217.07 0 L 1261.04 0 L 1260.4 22.4192 C 1267.14 33.1991 1276.05 42.5989 1283.22 53.2943 L 1276.49 59.0949 C 1270.13 64.943 1244.06 88.4795 1237.29 93.2834 C 1218.43 110.24 1199.32 126.931 1179.99 143.352 C 1172.7 149.58 1164 156.652 1156.46 163.413 C 1154.78 164.47 1151.69 178.694 1151.62 178.732 C 1130.14 191.022 1108.94 197.879 1086.15 208.531 C 1071.52 215.368 1043.18 222.864 1061.61 245.385 C 1063.54 247.735 1067.35 249.553 1070.15 250.86 C 1063.28 254.532 1053.69 259.334 1047.44 263.568 C 1044.5 252.375 1041.44 241.215 1038.26 230.091 L 1024.99 231.731 C 1022.78 225.034 1021.12 216.385 1019.58 209.338 C 1034.41 199.482 1049.76 190.33 1064.15 180.791 C 1068.37 168.742 1072.82 156.776 1077.5 144.898 C 1069.22 121.167 1061.1 97.3806 1053.15 73.5387 C 1042.15 71.1228 998.643 60.2925 989.036 61.1246 C 978.829 62.0088 947.763 70.4418 935.006 72.7653 C 937.474 83.9572 939.886 95.7977 942.724 106.852 C 927.342 119.565 912.753 133.755 897.873 145.928 C 903.993 148.086 910.191 150.109 916.037 152.915 C 909.673 169.644 902.106 188.232 896.318 204.985 C 912.347 209.023 928.124 213.841 944.084 217.917 C 946.589 226.509 954.088 262.013 955.938 265.911 C 955.894 271.525 942.899 288.001 939.054 293.902 C 941.451 311.975 944.861 333.7 946.448 351.498 C 947.067 358.444 942.477 387.21 940.849 395.705 C 936.744 417.126 933.224 442.199 928.455 463.329 C 902.436 480.743 873.356 498.009 852.56 521.252 C 842.43 532.574 791.069 564.563 802.324 579.736 C 808.807 583.047 809.891 581.914 810.487 589.481 C 813.13 593.988 815.689 593.575 820.556 594.214 C 821.136 599.295 820.498 599.422 824.194 603.28 C 828.796 605.023 829.663 604.407 835.004 602.817 C 839.149 606.969 837.92 608.286 842.559 610.575 C 853.203 610.389 883.173 576.548 895.513 567.915 C 919.538 551.107 946.29 538.036 970.461 522.618 L 975.567 545.668 C 959.942 572.845 944.134 599.915 928.141 626.878 C 917.169 645.515 899.021 673.11 893.296 692.62 C 892.232 695.41 891.395 698.425 890.437 701.3 C 886.847 715.128 881.96 730.283 877.52 743.925 C 875.107 743.743 875.403 743.505 873.078 745.674 C 857.151 760.538 844.927 779.654 830.402 795.548 C 818.505 808.565 801.99 820.19 788.95 832.243 C 788.221 853.168 787.896 874.105 787.975 895.043 C 760.661 894.857 735.851 888.647 726.124 919.899 L 677.58 919.936 L 604.858 919.835 C 569.195 919.2 531.757 919.847 495.959 919.919 L 496.126 634.327 C 495.785 602.747 496.028 570.825 496.052 539.217 L 496.007 471.277 L 496.237 346.133 C 498.335 322.851 496.673 290.92 497.145 266.668 C 496.479 245.828 496.374 224.973 496.833 204.127 C 498.06 197.369 499.433 190.637 500.951 183.938 C 515.985 117.97 554.601 59.0573 612.261 22.8102 C 627.159 13.4765 639.278 7.59339 655.026 0 z"/>
<path transform="translate(0,0)" fill="rgb(136,66,26)" d="M 690.198 459.79 C 693.524 453.299 698.71 438.385 703.879 434.853 C 706.06 440.312 699.502 454.771 697.968 460.321 C 703.037 454.009 708.152 441.564 711.141 439.815 L 713.498 439.895 C 717.348 445.718 705.129 454.816 707.545 461.027 C 713.704 459.07 712.952 447.246 720.047 446.696 C 721.01 448.114 721.638 449.105 720.818 450.962 C 716.389 460.98 711.192 471.699 705.697 481.147 C 703.069 485.666 699.837 488.738 697.438 493.024 C 688.528 516.713 670.99 552.002 658.23 574.144 C 664.784 571.415 672.329 567.833 679.232 566.729 C 684.184 565.364 689.755 565.913 694.778 566.384 C 695.654 563.677 695.358 564.471 694.468 561.23 C 688.763 555.799 685.592 552.652 692.612 545.858 L 693.289 545.21 C 694.892 537.028 694.097 532.918 702.14 527.561 C 707.575 523.961 714.241 522.728 720.604 524.145 C 731.286 526.516 737.497 534.914 736.799 545.349 C 736.501 549.789 737.399 550.482 741.102 552.85 C 741.533 554.03 742.319 555.481 741.349 556.763 C 736.702 562.895 729.074 572.732 723.313 577.488 C 724.034 589.62 721.475 626.351 724.268 633.771 L 738.487 617.933 C 739.342 606.178 745.506 581.965 752.984 573.362 L 754.597 573.463 C 756.413 579.169 753.467 588.139 751.911 593.897 C 759.449 585.255 761.365 577.609 768.002 569.194 L 770.399 569.042 L 771.768 570.455 C 772.176 576.801 762.256 590.699 758.779 599.039 C 764.138 594.416 765.07 593.811 769.206 587.903 L 769.881 588.063 C 773.627 588.769 773.387 588.928 773.798 592.548 C 771.804 595.574 769.16 598.611 769.621 602.067 L 770.743 602.657 C 776.392 598.083 779.049 589.567 784.422 585.472 C 787.097 585.927 786.108 585.425 788.082 588.136 C 787.881 590.677 773.046 614.107 770.251 619.966 C 769.361 621.214 768.503 622.047 768.246 623.436 C 763.941 627.012 762.443 627.494 757.181 629.611 C 746.896 645.094 737.565 660.724 727.986 676.633 C 716.596 695.883 714.077 699.36 698.628 716.315 C 690.509 725.888 681.36 736.249 673.564 745.961 C 674.122 752.481 674.646 762.716 677.378 768.351 C 682.495 778.906 696.241 798.857 703.701 807.673 C 695.253 842.985 684.38 884.51 677.58 919.936 L 604.858 919.835 C 569.195 919.2 531.757 919.847 495.959 919.919 L 496.126 634.327 C 510.161 625.487 541.005 599.271 554.851 587.839 C 555.177 585.812 555.561 583.795 556.005 581.791 C 557.167 576.688 567.358 551.901 571.283 549.402 C 573.96 551 573.137 550.047 574.309 553.064 C 573.996 557.66 570.064 564.363 567.965 568.941 C 577.717 562.904 585.216 548.643 591.404 547.457 L 593.768 548.926 C 602.97 544.075 629.887 534.231 640.828 529.943 C 651.227 514.042 666.796 498.697 675.759 482.125 L 680.165 476.939 C 681.915 466.942 685.714 443.759 691.286 435.839 C 694.588 440.733 690.716 453.682 690.198 459.79 z"/>
<path transform="translate(0,0)" fill="rgb(244,162,89)" d="M 673.564 745.961 C 674.122 752.481 674.646 762.716 677.378 768.351 C 682.495 778.906 696.241 798.857 703.701 807.673 C 695.253 842.985 684.38 884.51 677.58 919.936 L 604.858 919.835 C 606.52 907.932 637.697 792.984 642.496 783.695 C 648.57 771.938 664.527 756.527 673.564 745.961 z"/>
<path transform="translate(0,0)" fill="rgb(244,162,89)" d="M 613.21 595.294 C 627.641 580.837 652.509 561.472 664.167 547.405 C 673.383 536.285 686.635 506.543 697.438 493.024 C 688.528 516.713 670.99 552.002 658.23 574.144 C 664.784 571.415 672.329 567.833 679.232 566.729 C 684.184 565.364 689.755 565.913 694.778 566.384 C 695.654 563.677 695.358 564.471 694.468 561.23 C 688.763 555.799 685.592 552.652 692.612 545.858 L 693.289 545.21 C 694.892 537.028 694.097 532.918 702.14 527.561 C 707.575 523.961 714.241 522.728 720.604 524.145 C 731.286 526.516 737.497 534.914 736.799 545.349 C 736.501 549.789 737.399 550.482 741.102 552.85 C 741.533 554.03 742.319 555.481 741.349 556.763 C 736.702 562.895 729.074 572.732 723.313 577.488 C 724.034 589.62 721.475 626.351 724.268 633.771 L 700.135 661.685 C 697.263 654.016 695.979 646.406 692.235 637.146 C 692.136 632.085 690.967 626.415 684.955 626.072 C 681.125 628.887 687.274 631.298 685.639 638.422 C 681.847 636.482 680.561 622.826 674.004 623.939 C 672.313 628.647 678.167 633.233 677.591 638.367 L 675.661 638.47 C 671.937 635.086 672.785 629.62 668.86 625.042 L 667.058 625.145 C 663.783 630.382 668.648 634.747 669.882 641.763 C 667.144 640.146 665.558 635.553 663.014 631.901 C 659.718 630.26 661.201 630.444 657.412 631.376 C 655.519 634.083 654.928 635.36 652.083 637.085 L 644.188 644.136 C 642.627 637.144 640.86 633.146 637.51 626.893 C 637.15 626.671 632.301 622.062 631.533 621.419 C 623.873 615.007 620.401 613.934 611.17 611.67 C 611.964 609.131 612.871 598.525 613.21 595.294 z"/>
<path transform="translate(0,0)" fill="rgb(239,91,91)" d="M 690.198 459.79 C 693.524 453.299 698.71 438.385 703.879 434.853 C 706.06 440.312 699.502 454.771 697.968 460.321 C 703.037 454.009 708.152 441.564 711.141 439.815 L 713.498 439.895 C 717.348 445.718 705.129 454.816 707.545 461.027 C 713.704 459.07 712.952 447.246 720.047 446.696 C 721.01 448.114 721.638 449.105 720.818 450.962 C 716.389 460.98 711.192 471.699 705.697 481.147 C 703.069 485.666 699.837 488.738 697.438 493.024 C 686.635 506.543 673.383 536.285 664.167 547.405 C 652.509 561.472 627.641 580.837 613.21 595.294 C 612.871 598.525 611.964 609.131 611.17 611.67 C 587.547 607.94 571.406 625.536 565.491 646.572 C 553.383 652.143 550.58 662.083 563.739 669.141 C 566.212 681.611 568.08 686.469 575.238 696.78 L 572.245 705.901 C 555.328 696.696 537.904 687.478 521.479 677.495 C 537.063 655.276 556.186 629.08 572.895 607.344 C 578.522 600.024 601.203 588.189 608.322 579.943 C 609.423 578.667 608.928 578.066 608.732 576.507 L 607.083 575.251 C 603.079 576.774 592.053 584.383 587.474 587.205 C 594.227 578.456 599.025 576.385 606.462 568.532 C 607.158 565.365 607.393 566.409 606.296 563.784 C 600.186 563.9 590.404 575.604 581.658 580.049 L 581.219 580.269 C 588.785 570.682 594.916 565.768 602.381 557.281 L 601.939 555.216 L 600.032 554.329 C 592.653 556.129 584.664 569.196 575.863 574.099 C 580.817 563.951 590.307 556.718 593.768 548.926 C 602.97 544.075 629.887 534.231 640.828 529.943 C 651.227 514.042 666.796 498.697 675.759 482.125 L 680.165 476.939 C 681.915 466.942 685.714 443.759 691.286 435.839 C 694.588 440.733 690.716 453.682 690.198 459.79 z"/>
<path transform="translate(0,0)" fill="rgb(196,106,39)" d="M 657.412 631.376 C 661.201 630.444 659.718 630.26 663.014 631.901 C 665.558 635.553 667.144 640.146 669.882 641.763 C 668.648 634.747 663.783 630.382 667.058 625.145 L 668.86 625.042 C 672.785 629.62 671.937 635.086 675.661 638.47 L 677.591 638.367 C 678.167 633.233 672.313 628.647 674.004 623.939 C 680.561 622.826 681.847 636.482 685.639 638.422 C 687.274 631.298 681.125 628.887 684.955 626.072 C 690.967 626.415 692.136 632.085 692.235 637.146 C 695.979 646.406 697.263 654.016 700.135 661.685 C 691.547 672.356 652.853 702.898 640.197 712.329 C 637.544 714.305 613.874 718.633 608.378 719.846 C 609.15 715.77 609.781 711.51 610.446 707.401 C 620.003 703.322 628.855 701.071 631.841 690.04 C 635.314 677.213 649.361 684.609 649.557 671.721 C 649.628 667.063 647.467 666.412 644.217 663.667 C 642.99 660.646 644.197 649.109 644.188 644.136 L 652.083 637.085 C 654.928 635.36 655.519 634.083 657.412 631.376 z"/>
<path transform="translate(0,0)" fill="rgb(244,162,89)" d="M 516.885 330.723 C 531.289 319.12 549.968 306.985 564.956 295.458 C 572.527 289.636 594.096 273.312 601.217 269.738 C 607.34 266.666 635.183 260.644 643.691 258.664 C 642.534 261.319 640.991 266.348 642.108 269.055 C 646.506 279.721 650.915 289.41 634.096 289.309 C 631.331 291.955 629.547 295.933 628.168 297.116 C 625.045 299.794 613.32 301.251 609.834 303.3 L 613.086 305.325 C 623.788 307.932 629.279 309.411 639.112 314.166 C 645.815 310.624 657.757 304.619 663.43 300.346 L 664.044 299.877 C 670.903 294.696 679.758 275.846 688.708 269.552 L 689.586 270.248 C 689.299 276.16 686.863 279.221 684.364 284.982 C 689.567 281.393 702.863 270.935 708.658 273.945 L 708.829 276.208 C 705.169 280.098 695.938 285.239 689.639 291.141 C 696.1 288.112 708.696 279.708 713.941 280.883 L 714.529 282.698 C 712.909 286.693 700.292 291.243 696.573 295.795 C 701.943 296.471 710.362 288.038 715.481 288.609 C 716.715 291.968 716.765 290.564 715.282 293.847 C 712.022 296.768 705.122 298.782 700.772 300.355 L 698.581 302.612 L 699.393 303.432 L 704.656 302.575 C 707.944 301.312 712.831 298.909 716.005 299.577 L 717.314 300.732 C 714.37 307.969 687.949 314.482 679.743 319.982 L 679.047 320.443 C 668.146 327.756 645.907 353.992 635.536 364.504 C 631.491 368.603 621.635 378.577 617.98 382.731 C 628.027 386.794 638.183 392.263 647.872 397.234 C 650.128 387.066 652.875 372.309 659.762 364.368 L 660.801 364.356 C 661.757 372.169 659.687 376.745 657.351 384.189 C 662.473 376.859 666.667 364.065 672.037 361.285 L 673.83 361.821 C 675.627 368.011 665.689 377.673 668.663 383.451 C 673.031 378.333 675.213 366.136 679.811 365.529 C 683.18 372.02 675.058 385.009 676.129 388.123 C 679.609 383.036 680.95 376.829 684.263 374.051 L 686.226 374.542 C 690.826 383.556 671.353 407.756 664.6 413.953 C 658.563 419.493 655.82 424.877 652.016 432.155 C 661.445 439.986 662.416 447.137 662.105 458.974 L 662.665 459.334 C 664.902 460.8 665.064 460.893 666.727 462.915 C 666.848 465.927 666.999 466.543 665.279 468.955 C 653.872 473.232 659.921 471.666 657.051 478.044 C 655.096 482.389 643.249 489.17 638.58 493.736 C 646.966 491.71 668.437 485.773 675.759 482.125 C 666.796 498.697 651.227 514.042 640.828 529.943 C 629.887 534.231 602.97 544.075 593.768 548.926 L 591.404 547.457 C 585.216 548.643 577.717 562.904 567.965 568.941 C 570.064 564.363 573.996 557.66 574.309 553.064 C 573.137 550.047 573.96 551 571.283 549.402 C 567.358 551.901 557.167 576.688 556.005 581.791 C 555.561 583.795 555.177 585.812 554.851 587.839 C 541.005 599.271 510.161 625.487 496.126 634.327 C 495.785 602.747 496.028 570.825 496.052 539.217 L 496.007 471.277 L 496.237 346.133 L 516.885 330.723 z"/>
<path transform="translate(0,0)" fill="rgb(196,106,39)" d="M 559.933 485.616 C 565.319 474.56 570.75 466.716 583.372 462.492 C 591.688 459.796 600.736 460.518 608.52 464.5 C 619.847 470.235 627.958 483.895 627.174 496.631 C 626.97 499.96 625.448 504.867 625.314 508.36 C 626.986 514.493 631.497 513.797 627.823 521.924 C 619.203 528.334 609.901 534.798 601.319 541.347 C 598.321 543.635 593.345 544.171 591.404 547.457 C 585.216 548.643 577.717 562.904 567.965 568.941 C 570.064 564.363 573.996 557.66 574.309 553.064 C 573.137 550.047 573.96 551 571.283 549.402 C 567.358 551.901 557.167 576.688 556.005 581.791 C 555.561 583.795 555.177 585.812 554.851 587.839 C 541.005 599.271 510.161 625.487 496.126 634.327 C 495.785 602.747 496.028 570.825 496.052 539.217 C 502.789 531.337 509.453 523.422 516.534 515.848 C 521.801 519.294 554.492 539.88 558.191 540.169 C 559.233 539.458 560.43 538.972 560.344 537.661 C 559.469 524.367 554.591 519.639 554.87 505.315 C 544.669 495.968 548.775 490.042 559.933 485.616 z"/>
<path transform="translate(0,0)" fill="rgb(136,66,26)" d="M 560.097 423.957 C 563.865 413.471 571.531 397.654 578.814 388.91 C 580.772 386.559 581.423 387.208 584.858 387.109 C 583.221 393.864 579.267 399.176 576.494 405.576 C 584.307 400.597 593.927 391.083 601.387 389.674 C 604.31 391.099 603.485 390.186 604.758 392.903 C 598.412 397.062 590.307 401.971 586.393 408.618 C 592.582 409.441 603.974 396.972 609.163 394.917 C 611.28 399.257 611.907 399.487 608.412 403.406 C 602.259 406.313 596.767 410.45 592.274 415.561 L 591.953 416.965 C 600.758 414.23 605.671 408.119 612.401 405.307 C 614.092 409.541 614.25 408.168 613.035 411.33 C 607.285 417.111 599.19 419.147 595.061 423.536 L 595.49 424.972 C 602.872 426.447 608.512 415.245 614.78 418.66 L 615.503 421.19 C 609.353 428.2 582.959 439.398 575.467 445.485 C 568.406 451.221 557.006 465.941 550.824 473.546 L 516.534 515.848 C 509.453 523.422 502.789 531.337 496.052 539.217 L 496.007 471.277 C 517.753 456.028 539.122 440.25 560.097 423.957 z"/>
<path transform="translate(0,0)" fill="rgb(196,106,39)" d="M 884.843 693.704 C 887.706 693.32 890.415 692.947 893.296 692.62 C 892.232 695.41 891.395 698.425 890.437 701.3 C 886.847 715.128 881.96 730.283 877.52 743.925 C 875.107 743.743 875.403 743.505 873.078 745.674 C 857.151 760.538 844.927 779.654 830.402 795.548 C 818.505 808.565 801.99 820.19 788.95 832.243 C 788.221 853.168 787.896 874.105 787.975 895.043 C 760.661 894.857 735.851 888.647 726.124 919.899 L 677.58 919.936 C 684.38 884.51 695.253 842.985 703.701 807.673 C 696.241 798.857 682.495 778.906 677.378 768.351 C 674.646 762.716 674.122 752.481 673.564 745.961 C 681.36 736.249 690.509 725.888 698.628 716.315 C 701.077 729.761 703.34 743.241 705.416 756.751 C 711.9 760.229 740.073 778.374 743.526 778.97 C 744.449 775.728 733.395 757.616 731.664 752.804 C 731.099 751.236 724.918 749.41 724.516 746.629 C 723.562 740.022 724.924 738.004 730.342 734.521 C 734.326 709.772 753.899 693.771 777.868 708.473 C 789.227 719.159 789.422 722.836 791.251 738.222 C 794.579 739.923 794.969 740.176 797.232 743.139 C 797.894 751.534 790.539 750.275 787.512 756.934 C 783.946 764.778 773.815 773.539 774.981 782.044 L 776.891 782.669 C 781.864 781.186 805.826 774.6 809.429 771.933 C 827.147 758.993 842.547 741.796 858.869 727.213 C 868.405 718.694 875.857 699.265 885.192 694.774 L 884.843 693.704 z"/>
<path transform="translate(0,0)" fill="rgb(244,162,89)" d="M 884.843 693.704 C 887.706 693.32 890.415 692.947 893.296 692.62 C 892.232 695.41 891.395 698.425 890.437 701.3 C 880.476 704.905 885.853 699.451 885.192 694.774 L 884.843 693.704 z"/>
<path transform="translate(0,0)" fill="rgb(244,162,89)" d="M 536.563 177.265 C 547.861 186.509 559.264 195.624 570.77 204.607 L 572.158 204.182 C 573.799 195.699 569.484 172.449 571.172 163.115 C 572.132 162.085 572.949 161.209 573.621 160.487 C 587.501 155.895 581.769 154.652 591.681 146.691 C 600.85 139.328 617.791 139.971 628.041 146.342 C 636.605 151.615 642.669 160.133 644.848 169.952 C 646.117 175.807 645.418 177.982 643.559 183.683 C 642.234 186.291 639.476 191.609 638.925 194.315 C 637.299 202.3 641.325 205.701 634.674 211.522 C 619.913 207.293 621.733 215.84 607.986 219.835 C 602.691 221.374 597.321 217.429 595.754 223.087 L 596.278 224.877 C 600.197 226.268 629.622 215.438 633.766 212.715 C 641.15 210.858 645.15 209.572 652.192 206.98 C 661.494 203.555 672.922 181.107 682.307 179.987 L 683.699 181.134 C 683.809 184.573 677.093 190.359 673.926 193.832 C 680.501 192.015 694.806 184.291 698.655 183.639 L 701.416 186.103 C 700.143 192.158 687.948 192.855 682.279 197.509 C 687.62 199.938 698.457 191.241 704.68 191.314 C 706.379 193.627 706.038 192.479 705.647 195.699 C 703.24 199.377 692.459 200.687 686.133 204.733 L 686.411 205.892 C 690.592 206.099 699.203 202.311 704.934 201.287 L 706.923 202.741 L 707.051 204.319 C 704.504 208.183 705.513 206.986 701.206 209.212 C 697.368 210.192 691.825 211.149 689.029 213.648 C 691.216 216.086 700.977 212.601 703.881 211.53 L 704.772 214.563 C 700.339 222.596 652.016 223.892 649.188 239.001 C 648.147 242.844 647.513 244.515 643.608 246.208 C 642.657 249.505 642.665 249.904 644.044 252.981 C 644.662 256.844 644.944 255.56 643.691 258.664 C 635.183 260.644 607.34 266.666 601.217 269.738 C 594.096 273.312 572.527 289.636 564.956 295.458 C 549.968 306.985 531.289 319.12 516.885 330.723 L 496.237 346.133 C 498.335 322.851 496.673 290.92 497.145 266.668 C 496.479 245.828 496.374 224.973 496.833 204.127 C 510.34 195.569 523.589 186.611 536.563 177.265 z"/>
<path transform="translate(0,0)" fill="rgb(196,106,39)" d="M 497.703 284.364 C 528.957 270.499 565.294 259.721 594.911 242.777 C 604.922 237.05 614.81 223.831 626.942 221.88 C 629.957 222.814 629.147 222.072 630.441 224.39 C 623.112 229.934 618.114 232.436 611.186 239.094 C 622.052 236.365 628.405 231.559 638.879 228.636 C 640.899 228.073 641.952 229.873 643.54 231.448 L 642.77 232.043 C 636.076 237.137 623.328 239.764 620.801 242.662 L 620.87 244.853 C 627.688 248.647 632.489 242.212 639.659 241.155 C 640.769 240.991 646.731 239.195 647.751 238.711 L 649.188 239.001 C 648.147 242.844 647.513 244.515 643.608 246.208 C 642.657 249.505 642.665 249.904 644.044 252.981 C 644.662 256.844 644.944 255.56 643.691 258.664 C 635.183 260.644 607.34 266.666 601.217 269.738 C 594.096 273.312 572.527 289.636 564.956 295.458 C 549.968 306.985 531.289 319.12 516.885 330.723 L 496.237 346.133 C 498.335 322.851 496.673 290.92 497.145 266.668 C 497.715 270.672 497.624 279.956 497.703 284.364 z"/>
<path transform="translate(0,0)" fill="rgb(244,162,89)" d="M 644.044 252.981 C 641.285 253.29 626.396 255.595 625.554 255.248 C 617.152 251.786 640.534 246.167 643.608 246.208 C 642.657 249.505 642.665 249.904 644.044 252.981 z"/>
<path transform="translate(0,0)" fill="rgb(136,66,26)" d="M 612.261 22.8102 C 616.505 24.3171 620.13 24.3036 624.353 25.2716 C 642.667 29.4685 658.936 53.5183 653.044 72.0263 C 651.125 79.3022 643.904 85.4517 640.697 91.6982 C 638.913 95.1733 643.489 102.715 635.73 105.79 C 630.137 108.006 628.855 105.478 625.159 101.619 C 612.661 106.348 604.974 108.204 591.528 103.897 C 588.494 106.502 585.196 109.227 582.254 111.895 C 590.47 116.533 602.86 123.996 611.225 127.425 C 586.084 143.656 561.194 160.272 536.563 177.265 C 523.589 186.611 510.34 195.569 496.833 204.127 C 498.06 197.369 499.433 190.637 500.951 183.938 C 515.985 117.97 554.601 59.0573 612.261 22.8102 z"/>
<path transform="translate(0,0)" fill="rgb(196,106,39)" d="M 655.026 0 L 703.194 0 L 748.205 0 L 763.168 0 C 765.725 3.7479 766.733 2.50079 768.006 6.99754 C 766.719 8.04098 767.28 7.42966 766.641 9.12144 C 769.664 9.43143 782.233 5.22205 786.291 4.18668 C 788.225 15.0897 773.581 11.8883 768.338 17.6188 L 769.423 18.6764 C 774.704 17.9383 780.064 15.1449 784.094 15.782 C 786.104 17.9409 785.673 16.7123 785.594 19.5238 C 776.972 24.5049 755.32 26.6611 749.599 30.4722 C 723.977 47.5408 693.189 68.5958 669.427 87.6776 C 650.085 100.63 631.194 115.735 611.225 127.425 C 602.86 123.996 590.47 116.533 582.254 111.895 C 585.196 109.227 588.494 106.502 591.528 103.897 C 604.974 108.204 612.661 106.348 625.159 101.619 C 628.855 105.478 630.137 108.006 635.73 105.79 C 643.489 102.715 638.913 95.1733 640.697 91.6982 C 643.904 85.4517 651.125 79.3022 653.044 72.0263 C 658.936 53.5183 642.667 29.4685 624.353 25.2716 C 620.13 24.3036 616.505 24.3171 612.261 22.8102 C 627.159 13.4765 639.278 7.59339 655.026 0 z"/>
<path transform="translate(0,0)" fill="rgb(231,237,242)" d="M 703.194 0 L 748.205 0 C 738.738 9.46787 678.302 37.747 662.7 45.4268 C 662.88 40.7679 663.67 35.2186 664.213 30.5194 C 675.126 26.5024 686.596 21.7933 697.449 17.5269 C 699.412 11.7005 701.327 5.85804 703.194 0 z"/>
<path transform="translate(0,0)" fill="rgb(255,209,102)" d="M 854.375 689.44 C 850.201 682.302 848.526 678.232 845.284 670.564 C 843.474 669.91 842.878 669.635 841.164 668.744 C 838.658 659.896 843.198 661.735 843.931 659.521 C 847.585 648.179 850.605 634.679 865.619 635.521 C 870.319 635.785 874.768 636.351 879.321 638.681 C 886.863 642.541 885.832 651.864 888.337 658.771 C 888.348 658.803 892.321 662.921 892.636 663.248 C 894.542 673.289 879.662 679.759 875.237 690.309 C 878.75 693.02 880.63 690.383 884.843 693.704 L 885.192 694.774 C 875.857 699.265 868.405 718.694 858.869 727.213 C 842.547 741.796 827.147 758.993 809.429 771.933 C 805.826 774.6 781.864 781.186 776.891 782.669 L 774.981 782.044 C 773.815 773.539 783.946 764.778 787.512 756.934 C 790.539 750.275 797.894 751.534 797.232 743.139 C 794.969 740.176 794.579 739.923 791.251 738.222 C 795.116 734.443 819.38 689.774 823.817 682.08 C 839.485 682.013 841.509 681.101 854.375 689.44 z"/>
<path transform="translate(0,0)" fill="rgb(255,209,102)" d="M 770.251 619.966 C 774.534 621.239 773.399 620.246 775.24 623.315 C 776.195 630.994 770.457 635.171 772.303 640.528 L 774.239 641.723 C 781.348 638.833 784.193 616.224 789.387 612.427 L 791.488 612.407 C 794.261 615.151 793.46 613.761 794.282 617.892 C 792.327 624.41 784.201 639.443 785.257 644.119 L 786.72 645.344 C 793.954 641.285 793.116 624.745 801.287 620.675 C 804.089 621.938 803.285 621.083 804.385 623.674 C 803.349 634.344 796.63 645.668 793.579 656.074 C 802.054 647.918 802.845 641.207 810.152 633.129 C 811.144 633.094 812.017 633.063 812.77 633.037 L 814.693 634.508 C 815.128 637.931 799.153 672.835 795.207 677.38 C 792.571 680.417 787.996 683.752 784.491 686.329 C 781.425 694.441 779.984 700.019 777.868 708.473 C 753.899 693.771 734.326 709.772 730.342 734.521 C 724.924 738.004 723.562 740.022 724.516 746.629 C 724.918 749.41 731.099 751.236 731.664 752.804 C 733.395 757.616 744.449 775.728 743.526 778.97 C 740.073 778.374 711.9 760.229 705.416 756.751 C 703.34 743.241 701.077 729.761 698.628 716.315 C 714.077 699.36 716.596 695.883 727.986 676.633 C 737.565 660.724 746.896 645.094 757.181 629.611 C 762.443 627.494 763.941 627.012 768.246 623.436 C 768.503 622.047 769.361 621.214 770.251 619.966 z"/>
<path transform="translate(0,0)" fill="rgb(231,237,242)" d="M 768.246 623.436 C 768.497 629.456 766.424 636.095 764.908 641.959 C 759.477 662.96 761.796 675.611 749.253 694.783 C 742.474 688.433 733.345 682.609 727.986 676.633 C 737.565 660.724 746.896 645.094 757.181 629.611 C 762.443 627.494 763.941 627.012 768.246 623.436 z"/>
<path transform="translate(0,0)" fill="rgb(244,162,89)" d="M 1197.71 0 L 1205.55 0 L 1213.72 0 L 1217.07 0 L 1261.04 0 L 1260.4 22.4192 C 1267.14 33.1991 1276.05 42.5989 1283.22 53.2943 L 1276.49 59.0949 C 1270.13 64.943 1244.06 88.4795 1237.29 93.2834 C 1227.26 89.3919 1216.16 82.6252 1208.9 74.5941 C 1207.98 73.5754 1209.32 71.4986 1209.82 70.2628 C 1212.76 71.4095 1221.5 77.6565 1224.03 76.7785 C 1219.54 73.0569 1217.17 70.9037 1211.87 68.2402 L 1210.61 67.2259 C 1210.05 64.766 1210.19 65.59 1211.28 62.8281 C 1216.92 60.8614 1221.7 69.508 1226.83 70.459 C 1225.22 63.8927 1211.95 62.5789 1214.51 51.8089 C 1217.32 53.312 1219.24 54.6126 1222.46 54.8394 C 1221.59 52.5635 1220.17 52.2429 1217.79 50.6639 C 1213.39 48.1942 1187.83 30.2396 1185.03 26.9609 L 1185.39 24.6497 C 1190.57 23.4268 1198.63 29.8735 1206.79 32.2307 C 1200.31 26.8065 1193.31 23.9219 1188.38 17.2718 C 1187.71 13.6953 1187.56 15.1795 1189.23 11.6502 C 1196.78 18.437 1200.85 22.107 1209.63 27.1094 C 1204.23 20.7371 1196.63 14.4717 1190.25 8.88191 C 1191.05 5.11035 1191.99 3.63388 1195.46 2.35432 C 1199.95 9.94578 1207.2 15.8598 1214.15 21.1158 C 1209.38 13.884 1203.13 7.53139 1197.21 1.17642 L 1197.71 0 z"/>
<path transform="translate(0,0)" fill="rgb(231,237,242)" d="M 1217.07 0 L 1261.04 0 L 1260.4 22.4192 C 1267.14 33.1991 1276.05 42.5989 1283.22 53.2943 L 1276.49 59.0949 C 1263.52 52.1333 1248.32 42.2651 1235.68 34.4098 C 1235.36 33.4593 1235.02 32.5153 1234.66 31.5782 C 1232.31 25.4464 1222.17 2.27866 1217.07 0 z"/>
<path transform="translate(0,0)" fill="rgb(231,237,242)" d="M 1205.55 0 L 1213.72 0 C 1216.05 4.72363 1218.28 10.2245 1220.29 15.1039 C 1213.26 9.37543 1211.52 6.66983 1205.55 0 z"/>
<path transform="translate(0,0)" fill="rgb(255,209,102)" d="M 611.225 127.425 C 631.194 115.735 650.085 100.63 669.427 87.6776 C 665.265 100.414 662.094 104.855 665.884 118.168 C 667.402 123.498 653.875 123.598 653.502 123.854 C 644.031 130.341 638.688 133.164 627.655 136.675 C 648.821 142.188 660.329 145.596 682.015 134.846 C 692.659 129.57 700.098 114.706 708.158 114.74 L 709.393 115.939 C 708.2 119.714 704.004 123.576 701.109 126.452 C 707.753 124.72 720.012 119.542 724.458 121.639 C 724.877 123.501 725.039 123.28 724.732 125.058 C 720.052 126.574 713.186 128.358 709.45 131.226 L 709.51 131.389 L 710.319 130.703 C 713.738 132.191 722.055 128.888 726.04 127.61 C 728.388 129.542 727.922 128.655 728.931 131.268 C 725.08 136.13 713.019 135.959 709.047 139.012 L 709.501 139.875 C 714.946 139.209 722.274 137.108 727.181 137.941 L 728.665 139.446 L 728.531 140.712 C 726.129 141.492 712.183 145.505 710.924 146.575 C 716.049 147.049 724.716 145.255 726.909 146.583 C 726.825 153.269 711.825 153.3 706.228 153.687 C 682.049 155.361 664.613 174.207 643.559 183.683 C 645.418 177.982 646.117 175.807 644.848 169.952 C 642.669 160.133 636.605 151.615 628.041 146.342 C 617.791 139.971 600.85 139.328 591.681 146.691 C 581.769 154.652 587.501 155.895 573.621 160.487 C 572.949 161.209 572.132 162.085 571.172 163.115 C 569.484 172.449 573.799 195.699 572.158 204.182 L 570.77 204.607 C 559.264 195.624 547.861 186.509 536.563 177.265 C 561.194 160.272 586.084 143.656 611.225 127.425 z"/>
<path transform="translate(0,0)" fill="rgb(136,66,26)" d="M 769.206 587.903 C 771.524 584.009 777.363 570.919 781.867 578.581 C 782.556 579.753 775.095 590.665 773.798 592.548 C 773.387 588.928 773.627 588.769 769.881 588.063 L 769.206 587.903 z"/>
<path transform="translate(0,0)" fill="rgb(239,91,91)" d="M 763.168 0 L 781.135 0 L 779.45 2.13083 C 775.509 3.5512 772.062 5.50166 768.006 6.99754 C 766.733 2.50079 765.725 3.7479 763.168 0 z"/>
<path transform="translate(0,0)" fill="url(#Gradient1)" d="M 1845.54 0 L 1877.21 0 L 1881.26 0 L 2048 0 L 2048 183.889 L 2048 187.704 L 2048 319.528 L 2048 331.335 L 2048 402.921 L 2048 406.703 L 2048 745.091 L 2048 752.416 L 2048 960.66 C 2028.44 970.629 2005.19 981.698 1986.28 992.266 C 1965.93 960.974 1939.33 925.318 1917.37 894.332 C 1905.02 876.001 1891.85 856.178 1878.6 838.621 C 1868.73 823.18 1856.01 805.607 1845.52 790.308 L 1783.82 699.751 L 1781.6 703.271 C 1762.33 675.54 1743.39 647.584 1724.77 619.41 C 1717.72 608.706 1691.98 566.997 1685.17 560.894 L 1799.35 343.201 C 1818.46 307.051 1845.15 260.317 1861.74 223.971 C 1858.72 209.045 1855.53 194.154 1852.17 179.302 C 1855.96 173.402 1853.5 168.201 1851.98 160.601 C 1861.45 158.573 1870.9 156.416 1880.31 154.13 C 1870.4 116.963 1863.19 79.3648 1854.91 41.837 C 1851.82 27.8693 1848.4 14.0231 1845.54 0 z"/>
<path transform="translate(0,0)" fill="rgb(147,164,179)" d="M 1864.5 277.783 C 1866.96 272.861 1869.54 267.408 1872.31 262.708 C 1876.42 288.653 1883.24 314.957 1889.13 340.638 L 1915.1 455.337 L 1931.79 529.602 C 1933.9 539.045 1939.64 567.851 1943.16 575.032 C 1951.39 591.858 1964.7 612.602 1974.34 629.263 C 1989.27 655.216 2004.47 681.011 2019.94 706.642 C 2028.22 720.51 2038.91 739.252 2048 752.416 L 2048 960.66 C 2028.44 970.629 2005.19 981.698 1986.28 992.266 C 1965.93 960.974 1939.33 925.318 1917.37 894.332 C 1905.02 876.001 1891.85 856.178 1878.6 838.621 C 1868.73 823.18 1856.01 805.607 1845.52 790.308 L 1783.82 699.751 C 1762.62 667.139 1737.74 633.919 1717.61 600.967 C 1729.13 577.602 1740.5 551.111 1751.34 527.25 C 1770.41 485.9 1789.22 444.432 1807.77 402.85 C 1825.45 363.494 1848.96 316.567 1864.5 277.783 z"/>
<path transform="translate(0,0)" fill="rgb(81,100,156)" d="M 1881.26 0 L 2048 0 L 2048 183.889 L 1944.49 209.741 C 1936.42 187.852 1926.89 152.742 1919.99 129.747 C 1906.81 86.5791 1893.9 43.3293 1881.26 0 z"/>
<path transform="translate(0,0)" fill="rgb(239,91,91)" d="M 1877.21 0 L 1881.26 0 C 1893.9 43.3293 1906.81 86.5791 1919.99 129.747 C 1926.89 152.742 1936.42 187.852 1944.49 209.741 L 2048 183.889 L 2048 187.704 L 2048 319.528 L 2048 331.335 L 2048 402.921 L 2048 406.703 L 2037.8 404.057 C 2030.98 409.846 2029.05 411.529 2020.61 414.57 C 2019.95 414.354 2019.3 414.12 2018.66 413.867 C 1999.6 406.448 1988.34 363.796 1979.5 344.049 C 1972.29 358.574 1967.36 365.602 1951.62 371.536 C 1947.62 345.71 1934.62 298.561 1936.68 274.925 C 1937.71 263.145 1948.73 228.869 1951.32 213.993 C 1947.93 211.92 1947.55 215.244 1942.58 213.734 C 1938.24 205.428 1923.34 152.871 1919.88 141.218 L 1877.21 0 z"/>
<path transform="translate(0,0)" fill="rgb(11,16,20)" d="M 1877.21 0 L 1881.26 0 C 1893.9 43.3293 1906.81 86.5791 1919.99 129.747 C 1926.89 152.742 1936.42 187.852 1944.49 209.741 L 2048 183.889 L 2048 187.704 C 2017.96 195.357 1985.36 202.89 1955.84 211.555 L 1944.57 255.301 C 1943.74 258.503 1938.18 280.459 1938.5 282.426 C 1941.67 301.949 1948.7 347.497 1954 364.506 C 1964.77 368.416 1972.75 348.447 1975.68 341.166 C 1979.55 331.543 1962.3 310.943 1967.41 307.425 C 1982.91 315.801 2004.48 448.835 2034.24 398.858 C 2029.93 387.052 2001.19 309.955 2001.98 302.991 C 2011.4 312.89 2029.25 383.586 2039.29 398.883 C 2040.54 400.791 2045.54 402.276 2048 402.921 L 2048 406.703 L 2037.8 404.057 C 2030.98 409.846 2029.05 411.529 2020.61 414.57 C 2019.95 414.354 2019.3 414.12 2018.66 413.867 C 1999.6 406.448 1988.34 363.796 1979.5 344.049 C 1972.29 358.574 1967.36 365.602 1951.62 371.536 C 1947.62 345.71 1934.62 298.561 1936.68 274.925 C 1937.71 263.145 1948.73 228.869 1951.32 213.993 C 1947.93 211.92 1947.55 215.244 1942.58 213.734 C 1938.24 205.428 1923.34 152.871 1919.88 141.218 L 1877.21 0 z"/>
<path transform="translate(0,0)" fill="rgb(11,16,20)" d="M 2048 331.335 C 2046.01 326.245 2036.4 299.884 2037.78 295.966 L 2039.24 295.839 C 2041.65 297.931 2046.37 315.194 2048 319.528 L 2048 331.335 z"/>
<path transform="translate(0,0)" fill="rgb(11,16,20)" d="M 1864.5 277.783 L 1863.01 276.433 C 1865.33 272.67 1871.02 260.853 1873.33 259.478 C 1876.57 263.372 1926.24 489.112 1931.81 513.605 C 1936 532.065 1938.87 552.365 1945.1 570.165 C 1949.86 583.798 1959.56 597.027 1966.88 609.524 C 1982.65 636.776 1998.72 663.859 2015.08 690.769 C 2024.35 706.128 2038.09 731.689 2048 745.091 L 2048 752.416 C 2038.91 739.252 2028.22 720.51 2019.94 706.642 C 2004.47 681.011 1989.27 655.216 1974.34 629.263 C 1964.7 612.602 1951.39 591.858 1943.16 575.032 C 1939.64 567.851 1933.9 539.045 1931.79 529.602 L 1915.1 455.337 L 1889.13 340.638 C 1883.24 314.957 1876.42 288.653 1872.31 262.708 C 1869.54 267.408 1866.96 272.861 1864.5 277.783 z"/>
<path transform="translate(0,0)" fill="rgb(231,237,242)" d="M 1557.11 225.406 C 1557.47 224.646 1559.62 220.721 1560.23 220.58 C 1582.84 215.364 1605.76 211.378 1628.51 206.76 L 1848.26 161.326 C 1849.17 167.346 1850.74 173.371 1852.17 179.302 C 1855.53 194.154 1858.72 209.045 1861.74 223.971 C 1845.15 260.317 1818.46 307.051 1799.35 343.201 L 1685.17 560.894 C 1630.16 672.1 1575.78 783.61 1522.01 895.42 C 1518.97 901.011 1516.08 907.206 1513.32 912.988 C 1493.08 955.379 1471.26 997.371 1451.87 1040.13 C 1401.82 1019.85 1351.97 999.092 1302.32 977.858 C 1306.36 963.259 1312.57 947.194 1317.26 932.53 C 1333.15 882.841 1352.19 832.514 1367.4 782.681 C 1369.16 779.503 1374.88 761.958 1376.37 757.521 L 1394.2 704.571 L 1436.78 578.711 C 1444.5 555.926 1453.48 531.764 1460.45 508.904 C 1462.72 504.02 1467.27 489.642 1469.17 484.104 L 1487.33 430.705 L 1538.88 279.869 C 1542.26 268.386 1556.3 234.938 1557.11 225.406 z"/>
<path transform="translate(0,0)" fill="rgb(81,100,156)" d="M 1472.17 0 L 1842.19 0 L 1861.66 90.2949 C 1866 110.193 1870.29 131.965 1875.7 151.442 C 1822.14 163.033 1768.49 174.237 1714.77 185.053 C 1653.34 197.906 1591.81 210.357 1530.21 222.404 L 1472.17 0 z"/>
<path transform="translate(0,0)" fill="rgb(18,26,33)" d="M 1685.17 560.894 C 1691.98 566.997 1717.72 608.706 1724.77 619.41 C 1743.39 647.584 1762.33 675.54 1781.6 703.271 L 1783.82 699.751 L 1845.52 790.308 C 1856.01 805.607 1868.73 823.18 1878.6 838.621 C 1891.85 856.178 1905.02 876.001 1917.37 894.332 C 1916.27 895.339 1913.99 897.71 1912.48 897.755 C 1865.96 899.132 1819.46 898.062 1772.93 898.004 L 1610.06 897.902 C 1582.63 897.913 1554.49 898.079 1526.99 897.608 C 1524.94 897.572 1523.57 896.625 1522.01 895.42 C 1575.78 783.61 1630.16 672.1 1685.17 560.894 z"/>
<path transform="translate(0,0)" fill="rgb(11,16,20)" d="M 1783.82 699.751 L 1845.52 790.308 C 1856.01 805.607 1868.73 823.18 1878.6 838.621 C 1877.51 838.287 1876.46 838.518 1875.25 838.61 C 1871.6 836.877 1790.8 716.812 1781.6 703.271 L 1783.82 699.751 z"/>
<path transform="translate(0,0)" fill="rgb(81,100,156)" d="M 1350.57 0 L 1377.75 0 L 1386.21 0 L 1468.52 0 C 1477.06 33.0247 1485.37 66.1098 1493.44 99.2529 C 1475.28 110.754 1457.1 122.661 1439.14 134.471 C 1434.35 137.616 1412.29 151.067 1408.98 154.225 C 1350.28 191.246 1292.91 230.494 1234.19 267.5 C 1230.92 269.559 1223.97 272.587 1220.06 272.222 C 1211.51 266.138 1158.36 183.65 1155.08 171.755 C 1159.75 165.02 1189.74 140.103 1198.08 132.779 C 1228.79 105.604 1259.69 78.6372 1290.76 51.8807 C 1309.21 36.0344 1333.59 16.4744 1350.57 0 z"/>
<path transform="translate(0,0)" fill="rgb(11,16,20)" d="M 1377.75 0 L 1386.21 0 C 1392.34 3.25511 1399.55 5.47901 1405.1 9.56657 C 1405.9 10.1574 1404.28 12.6826 1403.82 12.4656 C 1395.64 8.61421 1385.45 4.79984 1377.75 0 z"/>
<path transform="translate(0,0)" fill="rgb(147,164,179)" d="M 1989.18 994.147 C 1993.69 993.135 2040.98 968.966 2048 965.474 L 2048 1071.61 L 1940.59 1126.2 C 1928.99 1132.09 1897.91 1146.84 1888.39 1153.21 C 1875.23 1097.59 1921.39 1081.97 1960.09 1061.75 C 1964.41 1052.08 1985.26 998.312 1989.18 994.147 z"/>
<path transform="translate(0,0)" fill="rgb(239,91,91)" d="M 180.756 900.649 L 389.057 900.629 L 452.535 900.845 C 465.155 900.828 480.155 897.51 489.596 906.342 C 495.84 912.183 491.525 919.809 484.351 923.454 C 455.017 924.582 425.319 924.163 395.906 924.259 L 0 924.573 L 0 900.875 L 120.158 900.691 C 137.456 900.687 164.606 901.571 180.756 900.649 z"/>
<path transform="translate(0,0)" fill="rgb(244,162,89)" d="M 788.95 832.243 C 801.99 820.19 818.505 808.565 830.402 795.548 C 844.927 779.654 857.151 760.538 873.078 745.674 C 875.403 743.505 875.107 743.743 877.52 743.925 C 872.975 758.314 835.761 872.854 836.58 876.236 C 839.531 878.278 841.008 878.313 844.459 878.883 C 841.767 884.545 840.99 888.868 839.607 894.901 C 822.396 894.825 805.185 894.872 787.975 895.043 C 787.896 874.105 788.221 853.168 788.95 832.243 z"/>
<path transform="translate(0,0)" fill="rgb(147,164,179)" d="M 2048 1076.13 L 2048 1101.16 C 2015.37 1116.52 1983.31 1133.83 1950.55 1149.13 C 1937.06 1155.41 1923.98 1163.1 1909.96 1168.11 C 1907.14 1169.12 1903.2 1168.39 1900.38 1167.54 C 1896.02 1166.24 1890.66 1160.26 1890.02 1155.79 C 1940.01 1133 1998.01 1101.36 2048 1076.13 z"/>
<path transform="translate(0,0)" fill="rgb(244,162,89)" d="M 1261.04 0 L 1315.51 0 C 1322.78 2.65523 1329.97 4.64265 1337.4 6.77663 C 1319.43 22.3841 1301.37 37.8902 1283.22 53.2943 C 1276.05 42.5989 1267.14 33.1991 1260.4 22.4192 L 1261.04 0 z"/>
<path transform="translate(0,0)" fill="rgb(18,26,33)" d="M 1532.92 226.852 C 1541.91 225.089 1549.56 221.091 1557.11 225.406 C 1556.3 234.938 1542.26 268.386 1538.88 279.869 C 1538.44 279.586 1534.61 277.544 1534.61 277.569 C 1533.43 261.108 1533.19 243.48 1532.92 226.852 z"/>
<path transform="translate(0,0)" fill="rgb(231,237,242)" d="M 1286.79 238.465 C 1323.58 250.536 1346.06 267.93 1378.75 285.854 C 1399.21 297.533 1421.09 306.994 1441.97 317.899 C 1461.57 328.139 1476.57 347.062 1492.87 361.777 C 1492.9 367.504 1492.63 377.249 1493.76 382.544 C 1494.02 394.208 1494.54 401.741 1489.47 412.688 L 1457.45 507.133 L 1456.77 509.877 C 1454.19 516.379 1448.12 532.348 1446.73 538.782 L 1443.61 548.372 L 1397.39 683.358 L 1376.72 744.882 C 1375.01 750.001 1368.25 769.02 1367.3 773.542 C 1359.5 794.737 1352.29 816.966 1345.04 838.41 C 1336.45 864.218 1325.46 894.014 1317.93 919.688 L 1310.76 918.474 C 1314.32 914.42 1315.72 908.137 1312.48 904.227 C 1306.93 897.538 1281.94 862.996 1276.57 860.436 C 1274.55 861.603 1273.8 861.983 1271.63 862.833 C 1269.2 860.973 1263.87 851.643 1261.09 847.993 C 1261.89 846.748 1264.08 844.516 1265.16 843.339 C 1265.55 839.476 1260.81 834.021 1258.37 830.716 C 1245.65 813.448 1232.94 796.273 1220.97 778.462 C 1202.11 753.401 1183.78 727.281 1165.19 701.914 C 1160.99 695.116 1146.05 641.522 1142.46 629.609 C 1142.28 627.085 1141.45 623.357 1142.67 621.842 L 1144.71 626.002 C 1151.43 642.055 1151.97 647.43 1170.34 637.695 C 1177.11 634.103 1184.12 629.938 1190.08 625.066 C 1191.18 624.162 1193.2 617.279 1194.4 617.093 C 1207.96 614.793 1202.78 605.013 1200.05 596.468 C 1196.5 585.327 1186.33 569.044 1184.48 557.972 C 1181.21 538.343 1178.73 517.66 1176.3 497.897 C 1171.7 460.624 1166.03 422.968 1162.68 385.615 C 1150.64 377.402 1126.66 355.763 1115.78 345.415 C 1127.38 338.244 1144.4 324.895 1155.75 316.46 C 1175.43 302.058 1195 287.497 1214.44 272.779 C 1222.01 276.38 1227.95 275.306 1235.05 271.406 C 1252.83 261.629 1269.06 248.26 1286.79 238.465 z"/>
<path transform="translate(0,0)" fill="rgb(244,162,89)" d="M 1346.62 315.405 C 1344.11 309.512 1335.42 294.274 1338.85 289.858 C 1344.11 290.543 1345.65 300.027 1350.49 306.141 L 1351.56 305.949 C 1351.07 300.954 1346.78 293.668 1345.26 287.659 C 1347.04 285.38 1345.9 286.051 1348.82 285.649 C 1351.87 287.981 1354.67 297.562 1357.15 302.52 L 1358.42 302.457 C 1360.34 296.643 1354.76 293.592 1357.94 287.372 L 1359.64 287.335 C 1364.48 292.107 1368.13 311.855 1369.62 319.09 L 1370.55 319.686 C 1370.82 313.636 1369.78 312.651 1375.06 309.444 C 1375.72 307.811 1377.51 291.29 1378.75 285.854 C 1399.21 297.533 1421.09 306.994 1441.97 317.899 C 1461.57 328.139 1476.57 347.062 1492.87 361.777 C 1492.9 367.504 1492.63 377.249 1493.76 382.544 C 1494.02 394.208 1494.54 401.741 1489.47 412.688 L 1457.45 507.133 L 1456.77 509.877 C 1454.19 516.379 1448.12 532.348 1446.73 538.782 L 1443.61 548.372 C 1442.64 548.169 1439.56 547.723 1439.24 546.79 C 1431.91 525.527 1425.3 517.986 1400.98 516.815 C 1401.01 516.114 1400.94 504.445 1400.87 504.168 L 1400.8 504.427 C 1395.83 497.501 1394.62 495.264 1389.01 488.48 L 1385.63 484.856 C 1372.03 472.971 1359.83 454.601 1345.15 442.9 C 1338.76 437.812 1306.29 414.309 1307.52 407.283 C 1313.9 403.544 1318.3 416.428 1325.04 416.893 C 1326.74 412.515 1306.65 402.849 1310.73 395.69 C 1311.54 395.495 1312.48 395.267 1313.56 395.006 C 1319.28 398.755 1324.38 406.855 1330.46 410.448 L 1331.65 409.944 C 1328.46 402.882 1316.16 396.929 1315.97 388.535 L 1317.44 387.097 C 1320.34 387.138 1322.39 388.349 1324.08 390.698 C 1328.96 397.505 1334.25 402.96 1340.64 408.32 C 1336.27 400 1325.44 390.411 1324.8 383.423 L 1326.27 382.174 C 1331.7 382.557 1338.5 394.682 1343.88 400.248 L 1344.6 400.976 C 1343.08 394.983 1341.47 391.129 1342.58 385.149 L 1343.85 385.034 C 1349.38 390.549 1358.09 413.271 1361.55 421.476 C 1369.53 425.655 1377.64 429.587 1385.87 433.268 C 1393.86 436.176 1401.28 439.022 1409.93 438.811 C 1408.18 437.479 1405.95 437.256 1403.96 436.647 C 1395.17 433.958 1392.1 427.459 1387.84 420.34 C 1376.53 418.201 1373.04 416.704 1378.1 404.679 C 1382.78 393.539 1374.03 389.18 1383.7 373.266 C 1370.89 360.786 1360.43 342.699 1347.22 329.893 C 1343.77 326.554 1329.65 302.019 1331.94 297.671 C 1335.36 298.18 1342.35 310.423 1345.87 314.54 L 1346.62 315.405 z"/>
<path transform="translate(0,0)" fill="rgb(239,91,91)" d="M 1397.57 485.089 C 1396.86 481.297 1395.78 478.021 1396.94 474.476 L 1398.51 473.283 C 1404.01 475.245 1405.86 483.235 1410.45 483.728 C 1409.79 478.404 1398.84 471.776 1400.16 465.408 L 1402.11 465.346 C 1405.16 468.917 1412.11 476.967 1416.45 478.375 C 1413.9 471.614 1404.85 466.176 1405.3 459.1 C 1407.07 457.178 1406.29 457.463 1408.47 457.061 C 1412.11 461.507 1418.78 473.056 1423.3 473.695 C 1424.24 466.965 1408.31 457.97 1414.03 450.987 C 1421.09 451.018 1423.21 469.37 1429.46 469.774 C 1429.51 464.459 1427.45 460.136 1429.09 457.069 L 1430.75 456.789 C 1436.17 462.721 1442.67 484.153 1443.23 492.545 C 1446.51 496.335 1453.42 504.842 1457.45 507.133 L 1456.77 509.877 C 1454.19 516.379 1448.12 532.348 1446.73 538.782 C 1436.52 524.951 1432.99 510.908 1417.74 501.695 C 1411.03 497.648 1403.21 490.412 1397.57 485.089 z"/>
<path transform="translate(0,0)" fill="rgb(244,162,89)" d="M 1202.27 703.814 C 1199.56 699.917 1199.3 696.392 1196.33 693.306 C 1193.26 692.573 1191.64 692.537 1189.52 690.259 C 1186.7 682.405 1190.38 683.555 1192.24 677.481 C 1192.82 673.651 1191.95 669.333 1192.56 665.527 C 1195.93 644.206 1228.11 639.435 1240.33 655.721 L 1241.5 653.745 C 1243.24 658.433 1244.72 663.215 1245.93 668.068 C 1248.16 672.101 1249.86 674.722 1250.91 679.202 L 1250.99 679.789 L 1251.45 680.302 C 1255.9 685.276 1259.1 688.182 1263.56 692.872 C 1278.91 707.024 1300.93 727.724 1313.31 744.386 C 1316.26 748.363 1319.99 760.263 1321.73 765.499 C 1328.98 789.288 1336.85 814.875 1345.04 838.41 C 1336.45 864.218 1325.46 894.014 1317.93 919.688 L 1310.76 918.474 C 1314.32 914.42 1315.72 908.137 1312.48 904.227 C 1306.93 897.538 1281.94 862.996 1276.57 860.436 C 1274.55 861.603 1273.8 861.983 1271.63 862.833 C 1269.2 860.973 1263.87 851.643 1261.09 847.993 C 1261.89 846.748 1264.08 844.516 1265.16 843.339 C 1265.55 839.476 1260.81 834.021 1258.37 830.716 C 1245.65 813.448 1232.94 796.273 1220.97 778.462 C 1202.11 753.401 1183.78 727.281 1165.19 701.914 C 1179.48 695.013 1175.52 706.032 1184.06 709.556 L 1184.91 708.089 C 1183.52 705.678 1183.18 705.359 1182.77 702.673 C 1184.91 700.794 1183.85 701.279 1186.83 701.074 C 1188.02 702.278 1192.6 714.558 1194.29 717.961 C 1201.15 718.191 1205.71 719.1 1211.54 715.505 C 1215.33 708.773 1207.42 706.362 1202.27 703.814 z"/>
<path transform="translate(0,0)" fill="rgb(255,209,102)" d="M 1202.27 703.814 C 1199.56 699.917 1199.3 696.392 1196.33 693.306 C 1193.26 692.573 1191.64 692.537 1189.52 690.259 C 1186.7 682.405 1190.38 683.555 1192.24 677.481 C 1192.82 673.651 1191.95 669.333 1192.56 665.527 C 1195.93 644.206 1228.11 639.435 1240.33 655.721 L 1241.5 653.745 C 1243.24 658.433 1244.72 663.215 1245.93 668.068 C 1248.16 672.101 1249.86 674.722 1250.91 679.202 L 1250.99 679.789 L 1251.45 680.302 C 1255.9 685.276 1259.1 688.182 1263.56 692.872 C 1278.91 707.024 1300.93 727.724 1313.31 744.386 C 1316.26 748.363 1319.99 760.263 1321.73 765.499 C 1309.55 774.465 1292.48 784.748 1281.46 793.438 L 1281.47 781.542 C 1285.14 777.96 1295.82 759.052 1295.02 757.724 C 1287.32 744.863 1284.63 720.505 1262.65 723.115 C 1249.36 724.693 1252.65 725.682 1243.57 732.464 C 1237.47 737.558 1235.33 758.316 1234.66 763.548 C 1234.21 766.986 1256.34 785.279 1257.17 792.672 C 1252.9 793.995 1230 780.982 1220.97 778.462 C 1202.11 753.401 1183.78 727.281 1165.19 701.914 C 1179.48 695.013 1175.52 706.032 1184.06 709.556 L 1184.91 708.089 C 1183.52 705.678 1183.18 705.359 1182.77 702.673 C 1184.91 700.794 1183.85 701.279 1186.83 701.074 C 1188.02 702.278 1192.6 714.558 1194.29 717.961 C 1201.15 718.191 1205.71 719.1 1211.54 715.505 C 1215.33 708.773 1207.42 706.362 1202.27 703.814 z"/>
<path transform="translate(0,0)" fill="rgb(231,237,242)" d="M 1250.99 679.789 L 1251.45 680.302 C 1255.9 685.276 1259.1 688.182 1263.56 692.872 C 1256.19 696.247 1245.13 703.631 1236.79 707.847 C 1238.97 704.588 1242.35 700.227 1244.22 697.026 C 1248.61 689.504 1242.68 685.743 1250.99 679.789 z"/>
<path transform="translate(0,0)" fill="rgb(249,227,165)" d="M 1241.5 653.745 C 1243.24 658.433 1244.72 663.215 1245.93 668.068 C 1245.61 668.483 1245.21 669.406 1244.62 669.433 C 1243.34 669.491 1243.01 667.358 1242.95 666.565 C 1242.68 662.799 1241.49 659.278 1240.33 655.721 L 1241.5 653.745 z"/>
<path transform="translate(0,0)" fill="rgb(136,66,26)" d="M 1294.92 504.648 C 1293.45 495.98 1287.23 483.915 1288.52 475.726 C 1292.95 478.157 1299.54 494.982 1302.28 500.654 C 1302.58 493.277 1299.93 488.347 1300.51 480.548 L 1302.28 479.132 L 1304.1 480.031 C 1308.31 486.431 1312.9 509.382 1312.84 517.17 L 1335.92 550.044 C 1342.94 548.545 1354.55 548.635 1360.56 546.715 C 1359.16 540.234 1338.36 526.962 1335.17 517.987 C 1335.72 513.681 1339.23 510.716 1339.23 510.46 C 1338.53 483.62 1360.26 469.006 1384.26 485.84 L 1385.63 484.856 L 1389.01 488.48 C 1394.62 495.264 1395.83 497.501 1400.8 504.427 L 1400.87 504.168 C 1400.94 504.445 1401.01 516.114 1400.98 516.815 C 1425.3 517.986 1431.91 525.527 1439.24 546.79 C 1439.56 547.723 1442.64 548.169 1443.61 548.372 L 1397.39 683.358 C 1392.64 676.799 1387.78 670.32 1382.81 663.924 C 1373.88 652.965 1364.37 639.403 1355.59 628.95 C 1336.87 606.662 1329.91 599.056 1316.22 574.119 C 1303.54 549.637 1288.53 527.395 1275.52 503.262 C 1273.61 499.711 1271.81 496.189 1270.61 492.323 C 1271.97 489.786 1271.17 490.472 1273.53 489.213 C 1278.54 491.66 1280.26 502.804 1284.53 505.516 L 1285.68 504.303 C 1285.37 498.623 1279.39 493.029 1277.92 485.256 C 1278.79 481.733 1277.97 482.896 1280.99 480.904 L 1282.48 481.418 C 1285.47 488.879 1290.65 497.822 1294.92 504.648 z"/>
<path transform="translate(0,0)" fill="rgb(255,209,102)" d="M 1335.92 550.044 C 1342.94 548.545 1354.55 548.635 1360.56 546.715 C 1359.16 540.234 1338.36 526.962 1335.17 517.987 C 1335.72 513.681 1339.23 510.716 1339.23 510.46 C 1338.53 483.62 1360.26 469.006 1384.26 485.84 L 1385.63 484.856 L 1389.01 488.48 C 1394.62 495.264 1395.83 497.501 1400.8 504.427 L 1400.87 504.168 C 1400.94 504.445 1401.01 516.114 1400.98 516.815 C 1399.11 517.199 1397.31 517.681 1395.47 518.16 C 1388.19 520.762 1378.8 525.518 1375.31 532.847 C 1372.06 540.265 1373.52 550.745 1371.88 558.363 C 1371.37 560.772 1363.59 562.129 1367.35 569.617 C 1370.53 575.957 1372.96 574.123 1377.46 576.206 C 1380.38 577.562 1383.73 588.182 1386.93 590.116 C 1390.87 593.473 1398.38 594.116 1400.63 597.985 C 1401.22 601.184 1401.68 602.22 1400.65 605.322 C 1398.64 605.57 1361.43 583.937 1356.29 581.061 C 1350.06 571.518 1341.64 559.506 1335.92 550.044 z"/>
<path transform="translate(0,0)" fill="rgb(231,237,242)" d="M 1389.01 488.48 C 1394.62 495.264 1395.83 497.501 1400.8 504.427 L 1400.87 504.168 C 1400.94 504.445 1401.01 516.114 1400.98 516.815 C 1399.11 517.199 1397.31 517.681 1395.47 518.16 C 1395.9 515 1396.9 510.461 1396.78 507.465 C 1396.63 503.856 1390.06 503.087 1390.05 498.543 C 1390.04 495.978 1389.03 492.484 1388.07 490.095 L 1389.01 488.48 z"/>
<path transform="translate(0,0)" fill="rgb(196,106,39)" d="M 1316.22 574.119 C 1329.91 599.056 1336.87 606.662 1355.59 628.95 C 1364.37 639.403 1373.88 652.965 1382.81 663.924 C 1387.78 670.32 1392.64 676.799 1397.39 683.358 L 1376.72 744.882 C 1375.01 750.001 1368.25 769.02 1367.3 773.542 C 1359.5 794.737 1352.29 816.966 1345.04 838.41 C 1336.85 814.875 1328.98 789.288 1321.73 765.499 C 1319.99 760.263 1316.26 748.363 1313.31 744.386 C 1300.93 727.724 1278.91 707.024 1263.56 692.872 C 1259.1 688.182 1255.9 685.276 1251.45 680.302 L 1250.99 679.789 L 1250.91 679.202 C 1250.83 672.009 1250.72 664.788 1253.55 658.06 L 1253.85 657.36 C 1256.46 651.132 1261.71 645.415 1266.06 640.152 C 1270.34 649.306 1276.43 659.595 1281.16 669.119 C 1290.25 673.968 1307.38 683.361 1316.43 686.201 L 1317.48 685.269 C 1315.15 677.093 1309.18 681.665 1302.91 675.571 C 1298.72 671.502 1297.74 665.665 1292.91 662.092 C 1287.12 661.603 1286.33 661.819 1283.39 656.384 C 1283.16 650.41 1287.8 648.766 1288.08 646.896 C 1291.29 625.215 1288.78 616.667 1313.11 609.094 C 1313.04 600.834 1312.97 581.127 1316.22 574.119 z"/>
<path transform="translate(0,0)" fill="rgb(244,162,89)" d="M 1316.22 574.119 C 1329.91 599.056 1336.87 606.662 1355.59 628.95 C 1364.37 639.403 1373.88 652.965 1382.81 663.924 C 1377.65 668.263 1351.49 681.212 1344.36 684.838 L 1340.76 673.659 C 1350.98 659.623 1345.04 657.732 1353.29 645.535 C 1355.46 642.338 1355.3 642.159 1354.74 639.159 C 1352.67 635.789 1350.38 635.069 1346.8 633.332 C 1340.86 615.728 1332.81 607.173 1313.11 609.094 C 1313.04 600.834 1312.97 581.127 1316.22 574.119 z"/>
<path transform="translate(0,0)" fill="rgb(244,162,89)" d="M 1225.36 564.317 C 1224.47 553.366 1222.87 550.93 1223.79 539.822 L 1224.64 539.17 C 1230.53 550.1 1229.26 554.593 1232.92 564.36 C 1233.31 559.026 1233.36 550.491 1235.67 546.148 L 1237.14 545.069 C 1240.73 550.522 1238.5 575.224 1237.76 582.641 C 1244.1 594.874 1261.85 628.385 1266.06 640.152 C 1261.71 645.415 1256.46 651.132 1253.85 657.36 L 1253.55 658.06 C 1250.72 664.788 1250.83 672.009 1250.91 679.202 C 1249.86 674.722 1248.16 672.101 1245.93 668.068 C 1244.72 663.215 1243.24 658.433 1241.5 653.745 C 1235.56 639.714 1231.36 622.263 1225.74 607.643 C 1218.67 589.236 1210.56 571.731 1206.1 552.525 C 1204.65 546.307 1204.45 547.439 1209.42 544.056 C 1211.25 549.574 1212.71 556.012 1216.02 560.527 C 1217.54 557.603 1213.24 546.585 1212.07 543.159 L 1214.62 540.807 C 1220.02 541.468 1222.65 558.369 1225.36 564.317 z"/>
<path transform="translate(0,0)" fill="rgb(196,106,39)" d="M 1036.89 641.38 C 1038.74 645.818 1040.52 650.906 1042.23 655.452 C 1049.62 673.399 1058.7 695.408 1067.7 712.536 C 1070.28 717.467 1081.34 731.161 1085.32 736.234 C 1089.67 741.631 1096.94 751.234 1100.67 756.883 C 1104.16 760.767 1106.37 763.431 1109.44 767.653 C 1119.51 780.638 1133.19 797.213 1142.41 810.319 C 1144.4 812.864 1146.47 815.287 1148.45 817.844 C 1154.43 825.223 1160.33 832.662 1166.16 840.161 L 1204.89 888.416 C 1207.35 886.485 1210.31 884.273 1212.64 882.275 C 1215.14 886.134 1218.15 890.536 1220.45 894.431 C 1213.54 903.559 1209.95 909.276 1204.7 919.588 C 1193.94 920.804 1170.52 920.119 1158.85 920.071 L 1075.61 919.869 L 1066.22 919.833 C 1056.03 920.564 1039.77 920.086 1029.18 920.056 L 959.337 919.786 C 946.663 919.761 902.192 920.911 892.185 919.406 C 893.728 913.516 896.28 906.746 898.116 900.722 C 908.736 904.642 907.332 906.52 911.227 894.684 C 911.679 892.326 919.335 871.025 920.557 867.773 C 926.866 850.975 932.478 831.061 939.394 814.786 C 940.734 811.433 941.908 808.002 943.129 804.603 C 949.308 787.94 954.574 770.388 961.17 754.034 C 965.977 744.839 969.745 727.09 975.206 717.029 C 975.323 716.33 975.757 715.725 976.381 715.392 C 990.578 698.736 1003.41 682.029 1017.17 665.071 C 1023.77 656.806 1029.85 649.325 1036.89 641.38 z"/>
<path transform="translate(0,0)" fill="rgb(255,209,102)" d="M 1036.89 641.38 C 1038.74 645.818 1040.52 650.906 1042.23 655.452 C 1049.62 673.399 1058.7 695.408 1067.7 712.536 C 1070.28 717.467 1081.34 731.161 1085.32 736.234 C 1089.67 741.631 1096.94 751.234 1100.67 756.883 C 1104.16 760.767 1106.37 763.431 1109.44 767.653 C 1094.25 775.848 1094.21 778.205 1091.62 793.943 C 1091.04 797.478 1086.76 801.262 1087.2 802.57 C 1090.29 811.679 1107.97 822.392 1112.14 831.001 L 1110.39 833.926 C 1098.99 832.668 1091.94 825.431 1085.46 816.729 C 1070.17 796.199 1052.79 776.509 1038.52 755.267 C 1039.47 753.81 1040.34 752.307 1041.14 750.763 C 1043.76 745.635 1051.31 726.449 1049.8 721.75 L 1047.1 721.189 C 1045.83 721.167 1045.09 721.293 1043.94 720.841 C 1044.06 718.792 1044.27 718.578 1043.22 716.79 L 1041.01 716.978 C 1038.55 716.592 1038.53 716.914 1036.95 715.06 C 1029.31 717.212 1032.83 725.73 1028.53 729.961 C 1026.41 725.107 1027.35 718.403 1025.32 716.421 C 1020.37 721.124 1020.7 742.394 1021.55 749.464 C 1011.94 766.889 1006.17 789.737 996.103 805.062 C 990.146 807.667 976.627 814.233 970.335 812.344 C 972.084 807.312 979.781 804.214 981.278 797.252 C 982.779 790.271 991.253 794.086 989.296 784.938 C 987.872 783.41 986.253 781.672 984.439 779.726 C 983.766 769.891 983.063 764.104 973.837 758.695 C 969.257 756.01 965.3 755.801 961.17 754.034 C 965.977 744.839 969.745 727.09 975.206 717.029 C 975.323 716.33 975.757 715.725 976.381 715.392 C 990.578 698.736 1003.41 682.029 1017.17 665.071 C 1023.77 656.806 1029.85 649.325 1036.89 641.38 z"/>
<path transform="translate(0,0)" fill="rgb(231,237,242)" d="M 1036.89 641.38 C 1038.74 645.818 1040.52 650.906 1042.23 655.452 C 1038.86 674.466 1031.87 692.125 1028.17 711.525 L 1027.18 711.644 C 1019.61 712.625 1012.11 716.968 1006.69 716.961 L 1005.69 715.657 C 1008.17 706.881 1025.36 690.896 1022.54 681.702 C 1021.1 680.653 1019.98 679.883 1018.47 678.928 C 1018.26 670.909 1020.94 671.801 1017.17 665.071 C 1023.77 656.806 1029.85 649.325 1036.89 641.38 z"/>
<path transform="translate(0,0)" fill="rgb(244,162,89)" d="M 1085.32 736.234 C 1089.67 741.631 1096.94 751.234 1100.67 756.883 C 1097.19 755.56 1094.32 753.815 1091.17 751.875 C 1083.19 746.977 1077.14 744.803 1085.32 736.234 z"/>
<path transform="translate(0,0)" fill="rgb(231,237,242)" d="M 976.381 715.392 C 977.316 714.892 978.472 715.103 979.171 715.9 C 979.869 716.697 979.927 717.871 979.309 718.732 C 978.691 719.593 977.561 719.915 976.581 719.509 C 975.602 719.102 975.033 718.075 975.206 717.029 C 975.323 716.33 975.757 715.725 976.381 715.392 z"/>
<path transform="translate(0,0)" fill="rgb(244,162,89)" d="M 1031.33 777.903 C 1047.37 800.573 1068.83 836.304 1083.3 860.625 L 1075.61 919.869 L 1066.22 919.833 C 1045.45 918.49 1014.05 919.208 992.93 919.315 L 992.871 849.102 C 1017.9 816.871 1019.75 817.858 1031.33 777.903 z"/>
<path transform="translate(0,0)" fill="rgb(244,162,89)" d="M 1162.92 919.334 C 1163.03 908.836 1163.45 846.219 1166.16 840.161 L 1204.89 888.416 C 1207.35 886.485 1210.31 884.273 1212.64 882.275 C 1215.14 886.134 1218.15 890.536 1220.45 894.431 C 1213.54 903.559 1209.95 909.276 1204.7 919.588 C 1197.19 918.566 1171.92 919.265 1162.92 919.334 z"/>
<path transform="translate(0,0)" fill="rgb(255,209,102)" d="M 911.227 894.684 C 912.609 900.602 911.644 912.486 911.352 919.079 C 904.965 919.106 898.553 919.014 892.185 919.406 C 893.728 913.516 896.28 906.746 898.116 900.722 C 908.736 904.642 907.332 906.52 911.227 894.684 z"/>
<path transform="translate(0,0)" fill="rgb(244,162,89)" d="M 1142.41 810.319 C 1144.4 812.864 1146.47 815.287 1148.45 817.844 C 1140.8 822.345 1135.13 826.584 1128 830.766 C 1133.17 823.294 1138.27 819.278 1142.01 811.178 L 1142.41 810.319 z"/>
<path transform="translate(0,0)" fill="rgb(244,162,89)" d="M 1039.07 735.592 C 1040.09 730.573 1040.87 724.745 1043.94 720.841 C 1045.09 721.293 1045.83 721.167 1047.1 721.189 C 1046.74 727.956 1043.71 729.568 1039.07 735.592 z"/>
<path transform="translate(0,0)" fill="rgb(255,209,102)" d="M 943.129 804.603 C 953.866 815.445 947.214 813.354 939.394 814.786 C 940.734 811.433 941.908 808.002 943.129 804.603 z"/>
<path transform="translate(0,0)" fill="rgb(244,162,89)" d="M 1036.95 715.06 C 1038.53 716.914 1038.55 716.592 1041.01 716.978 C 1040.09 719.278 1036.35 730.128 1034.73 730.167 C 1034.76 730.207 1037.06 717.823 1036.95 715.06 z"/>
<path transform="translate(0,0)" fill="rgb(239,91,91)" d="M 990.694 527.07 C 1005.51 527.173 1115.93 525.744 1121.3 527.637 L 1121.88 530.989 L 1013.92 663.273 L 984.576 698.947 C 982.013 702.055 972.72 712.513 971.355 715.563 C 964.005 731.975 959.396 750.189 952.791 766.926 C 935.728 810.162 922.47 856.34 905.214 899.277 C 886.416 892.004 867.662 884.618 848.953 877.12 C 846.665 876.197 842.342 875.102 839.802 874.385 C 861.933 809.738 879.958 743.236 902.197 678.636 C 905.606 668.732 924.894 640.182 930.886 629.945 C 950.599 595.524 970.535 561.231 990.694 527.07 z"/>
<path transform="translate(0,0)" fill="rgb(147,164,179)" d="M 1298.91 981.002 C 1303.73 981.26 1433.8 1037.18 1450.67 1044.18 C 1440.4 1076.63 1430.84 1109.71 1420.8 1142.31 C 1381.98 1127.89 1342.12 1111.85 1303.17 1097.03 L 1196.66 1055.49 C 1167.28 1044.3 1136.61 1033.24 1107.83 1020.74 C 1115.02 1011.37 1122.28 1003.74 1133.54 999.248 C 1159.8 988.77 1226.67 1000.59 1258.41 996.045 C 1271.83 994.125 1286.38 986.188 1298.91 981.002 z"/>
<path transform="translate(0,0)" fill="rgb(33,159,132)" d="M 995.276 238.085 C 1006.98 238.137 1023.67 235.465 1035.66 233.701 L 1038.71 244.118 L 1043.7 263.603 C 1036.1 263.778 1024.22 264.077 1017.19 266.508 C 968.701 283.265 1004.92 339.828 1014.49 369.349 C 1041.47 389.392 1074.61 410.517 1099.83 431.76 C 1107.6 462.314 1113.53 493.015 1121.32 523.744 L 974.378 523.743 C 972.993 516.827 972.132 507.308 971.042 499.969 C 967.839 479.409 964.953 458.801 962.384 438.153 C 956.406 390.401 949.925 342.714 942.944 295.098 C 954.669 275.558 969.015 259.872 979.74 239.048 C 985.775 239.011 989.304 238.854 995.276 238.085 z"/>
<path transform="translate(0,0)" fill="rgb(239,91,91)" d="M 1415.01 154.369 C 1431.68 143.911 1448.23 133.28 1464.68 122.478 C 1472.64 139.847 1478.2 153.706 1483.61 172.192 C 1488.29 190.472 1492.53 208.294 1493.44 227.273 C 1495.94 270.452 1492.38 316.38 1493.74 359.831 C 1493.96 366.851 1494.09 375.558 1493.76 382.544 C 1492.63 377.249 1492.9 367.504 1492.87 361.777 C 1476.57 347.062 1461.57 328.139 1441.97 317.899 C 1421.09 306.994 1399.21 297.533 1378.75 285.854 C 1346.06 267.93 1323.58 250.536 1286.79 238.465 L 1292.13 234.652 L 1295.64 232.184 L 1301.11 228.776 L 1304.93 226.373 C 1307.05 224.521 1320.33 216.286 1323.39 214.315 C 1347.04 197.613 1376.42 179.642 1401.13 163.758 C 1404.37 161.263 1407.85 159.191 1411.18 156.789 L 1415.01 154.369 z"/>
<path transform="translate(0,0)" fill="rgb(244,162,89)" d="M 1401.13 163.758 C 1406.47 168.304 1409.1 168.842 1414.54 172.352 C 1402.44 182.362 1397.66 194.595 1398.82 210.236 C 1400.36 213.373 1403.39 220.204 1403.3 221.964 C 1403.12 225.597 1400.1 241.117 1406.86 240.727 C 1420.65 239.93 1418.77 245.117 1428.51 252.633 C 1434.93 257.584 1449.36 250.85 1452.93 262.433 L 1452.17 263.727 C 1431.89 264.08 1414.74 265.057 1396.83 256.332 C 1377.6 247.85 1355.62 241.886 1337.9 233.307 C 1333.62 224.657 1329.95 221.463 1323.39 214.315 C 1347.04 197.613 1376.42 179.642 1401.13 163.758 z"/>
<path transform="translate(0,0)" fill="rgb(231,237,242)" d="M 1401.13 163.758 C 1406.47 168.304 1409.1 168.842 1414.54 172.352 C 1402.44 182.362 1397.66 194.595 1398.82 210.236 C 1395.42 206.006 1388.67 191.09 1382.37 195.475 C 1382.66 198.285 1387.5 206.638 1389.29 211.797 C 1378.87 201.242 1374.57 195.608 1361.32 188.601 C 1367.13 199.972 1376.13 206.946 1383.79 217.683 C 1377.24 213.015 1365.46 199.672 1359.38 198.808 L 1357.67 200.151 L 1357.64 203.361 C 1361.73 206.892 1368.3 212.209 1371.6 216.178 L 1371.2 217.768 L 1372.55 217.334 L 1373.13 218.946 L 1372.4 218.741 L 1372.7 217.914 L 1371.48 218.275 L 1371.94 217.045 L 1371.63 216.726 L 1369.82 217.263 C 1364.59 213.619 1361.31 210.744 1356.59 206.588 C 1354.48 209.403 1353.47 209.778 1353.14 212.871 C 1356.12 216.092 1356.95 215.378 1359.5 218.386 C 1364.08 219.029 1370.22 226.423 1373.52 229.939 C 1366.05 226.199 1361.92 223.95 1356.22 217.873 L 1353.2 218.501 C 1346.96 228.674 1396.64 249.421 1397.03 256.061 L 1396.83 256.332 C 1377.6 247.85 1355.62 241.886 1337.9 233.307 C 1333.62 224.657 1329.95 221.463 1323.39 214.315 C 1347.04 197.613 1376.42 179.642 1401.13 163.758 z"/>
<path transform="translate(0,0)" fill="rgb(196,106,39)" d="M 1415.01 154.369 C 1431.68 143.911 1448.23 133.28 1464.68 122.478 C 1472.64 139.847 1478.2 153.706 1483.61 172.192 C 1470.67 168.8 1454.92 164.686 1441.81 162.228 C 1438.76 163.958 1437.34 163.54 1433.65 164.359 L 1432.98 164.563 C 1422.17 167.749 1424.32 167.291 1414.54 172.352 C 1409.1 168.842 1406.47 168.304 1401.13 163.758 C 1404.37 161.263 1407.85 159.191 1411.18 156.789 L 1415.01 154.369 z"/>
<path transform="translate(0,0)" fill="rgb(255,209,102)" d="M 1415.01 154.369 C 1424.79 158.503 1432.64 159.048 1441.81 162.228 C 1438.76 163.958 1437.34 163.54 1433.65 164.359 L 1432.98 164.563 C 1422.17 167.749 1424.32 167.291 1414.54 172.352 C 1409.1 168.842 1406.47 168.304 1401.13 163.758 C 1404.37 161.263 1407.85 159.191 1411.18 156.789 L 1415.01 154.369 z"/>
<path transform="translate(0,0)" fill="rgb(244,162,89)" d="M 1441.81 162.228 C 1454.92 164.686 1470.67 168.8 1483.61 172.192 C 1488.29 190.472 1492.53 208.294 1493.44 227.273 C 1493.2 231.9 1485.83 242.387 1481.27 243.903 C 1475.97 241.217 1478.3 233.545 1480.5 231.513 C 1485.14 227.241 1480.3 209.313 1481.33 207.204 C 1488.35 192.878 1487.21 189.448 1471.52 184.918 C 1458.58 167.845 1456.75 165.604 1433.65 164.359 C 1437.34 163.54 1438.76 163.958 1441.81 162.228 z"/>
<path transform="translate(0,0)" fill="rgb(231,237,242)" d="M 1295.64 232.184 L 1306.65 238.66 C 1301.26 237.557 1296.81 237.287 1292.13 234.652 L 1295.64 232.184 z"/>
<path transform="translate(0,0)" fill="rgb(231,237,242)" d="M 1304.93 226.373 C 1310.28 231.531 1305.14 230.798 1301.11 228.776 L 1304.93 226.373 z"/>
<path transform="translate(0,0)" fill="rgb(239,91,91)" d="M 1119.24 592.925 C 1126.87 598.493 1120.56 630.333 1136.96 623.763 C 1146.4 647.428 1150.89 676.048 1159.84 699.708 C 1163.38 709.066 1182.88 732.62 1190.02 742.303 C 1205.97 763.995 1221.69 785.844 1237.2 807.847 C 1243.42 816.561 1249.89 825.082 1256.23 833.706 C 1258.32 836.551 1261.1 839.137 1260.1 842.465 L 1255.18 846.754 C 1249.86 849.703 1210.55 879.362 1205.48 883.533 C 1159.11 825.542 1113.35 767.071 1068.2 708.129 C 1082.05 673.053 1103.3 627.235 1119.24 592.925 z"/>
<path transform="translate(0,0)" fill="rgb(239,91,91)" d="M 1152.62 182.95 L 1154.12 183.14 C 1159.42 187.54 1204.81 259.2 1212.07 270.437 C 1175.16 296.121 1139 324.544 1102.86 351.351 C 1096.82 355.828 1080.36 356.073 1079.98 346.155 C 1079.75 340.014 1087.33 337.48 1091.41 334.477 C 1106.36 322.98 1133.65 311.598 1147.56 299.835 L 1147.4 298.14 C 1140.45 296.539 1071.18 345.753 1058.18 348.88 C 1054.6 349.741 1052.54 350.563 1048.48 348.479 C 1045.75 347.08 1044.2 344.31 1043.47 341.559 C 1042.7 338.695 1042.25 335.074 1044.51 332.676 C 1049.32 327.564 1061.88 321.422 1067.09 318.032 C 1075.26 312.723 1132.23 280.901 1134.41 277.071 C 1128.73 275.703 1110.02 288.493 1103.57 292.322 C 1092.51 298.94 1031.28 336.811 1023.55 337.309 C 1020.47 337.507 1017.6 336.329 1015.47 334.101 C 1013.17 331.708 1012.04 328.208 1012.13 324.926 C 1012.23 321.598 1013.59 318.841 1016.09 316.674 C 1021.85 311.689 1030.87 307.872 1037.54 304.111 L 1090.72 274.12 C 1100.11 268.812 1118.15 259.312 1125.35 252.673 L 1125.71 252.332 C 1101.02 259.109 1063.12 288.085 1038.31 299.725 C 1017.06 309.694 1014.47 289.825 1024.07 281.244 C 1042.36 264.895 1093.37 248.043 1109.25 232.826 L 1109.27 231.427 C 1097.17 229.668 1072.89 261.244 1061.23 238.968 C 1054.68 225.979 1065.89 221.612 1075.21 217.251 C 1100.42 205.463 1128.13 195.842 1152.62 182.95 z"/>
<path transform="translate(0,0)" fill="rgb(33,159,132)" d="M 1034.34 267.653 L 1037.86 267.2 L 1038.1 268.267 C 1036.35 269.715 1035.48 270.558 1033.47 271.587 C 1014.14 280.948 1005.25 289.887 1024.7 306.661 C 1021.26 312.59 1003.57 312.227 1008.58 330.551 C 1014.43 351.941 1033.08 334.617 1038.86 336.61 C 1041.17 342.121 1041.41 350.174 1047.54 352.568 C 1057.26 356.36 1067.76 348.482 1075.3 343.672 C 1076.46 346.375 1078.52 351.582 1079.83 353.964 C 1094.99 363.707 1100.26 358.073 1112.91 347.845 C 1125.94 359.62 1145.68 378.286 1159.37 388.118 C 1161.91 418.481 1166.7 451.462 1170.65 481.792 C 1173.7 505.253 1176.54 531.988 1180.53 555.054 C 1173.34 555.924 1137.77 560.98 1132.71 559.18 L 1131.73 557.161 C 1125.47 522.012 1112.58 467.565 1103.56 432.3 C 1107.42 428.903 1112.64 425.097 1114.06 420.22 L 1112.8 419.435 C 1108.66 420.85 1105.07 425.377 1101.95 428.674 C 1084.32 412.697 1038.66 381.98 1017.59 367.434 C 1009.21 342.619 984.321 302.471 1003.84 278.588 C 1011.53 269.173 1023.13 268.566 1034.34 267.653 z"/>
<path transform="translate(0,0)" fill="rgb(251,169,153)" d="M 958.643 95.1303 C 972.378 101.012 990.519 108.269 1003.23 115.262 C 997.956 119.908 992.656 124.519 987.325 129.094 L 992.028 148.267 L 1011.1 140.338 L 1026.51 150.211 C 1023.93 157.904 1022.34 163.928 1020.41 171.826 C 1014.41 174.924 1005.37 178.334 998.897 180.97 C 1001.14 183.418 1011.68 194.881 1012.55 196.703 C 1015.67 203.254 1019.74 224.23 1020.4 231.364 L 1018.87 233.009 C 1006.27 232.982 990.817 235.313 977.698 236.011 C 975.003 240.95 962.655 261.406 958.642 263.785 C 956.864 256.977 955.101 246.297 953.678 239.122 C 964.64 226.113 976.562 212.424 987.017 199.117 C 976.478 202.665 949.925 209.123 941.47 213.176 C 928.425 210.189 913.749 205.844 900.688 202.253 L 921.125 150.724 C 916.403 148.703 909.843 146.526 904.897 144.717 C 923.023 128.75 941.707 112.295 958.643 95.1303 z"/>
<path transform="translate(0,0)" fill="rgb(11,16,20)" d="M 1013.33 152.085 C 1017.8 155.373 997.914 164.611 994.244 167.069 C 990 163.198 994.92 162.155 998.565 160.19 C 1003.56 157.496 1008.42 154.97 1013.33 152.085 z"/>
<path transform="translate(0,0)" fill="rgb(239,91,91)" d="M 1523.93 900.338 C 1532.58 901.511 1557.55 900.952 1567.58 900.948 L 1653.21 900.896 C 1739.99 900.873 1830.61 902.346 1917.07 900.656 L 1933.42 923.688 L 1924.25 923.841 L 1512.83 923.93 C 1516.35 915.982 1520.05 908.116 1523.93 900.338 z"/>
<path transform="translate(0,0)" fill="rgb(147,164,179)" d="M 1106.86 1024.64 C 1138.2 1038.66 1178.41 1052.77 1211.06 1065.38 L 1419.99 1146.43 C 1418.32 1151.83 1417.67 1153.28 1414.83 1158.17 C 1400.98 1166.25 1386.25 1155.84 1372.18 1150.29 L 1305.92 1124.32 L 1182.53 1076.6 C 1160.24 1068 1137.72 1059.63 1115.72 1050.39 C 1104.93 1045.86 1104.5 1034.36 1106.86 1024.64 z"/>
<path transform="translate(0,0)" fill="rgb(33,159,132)" d="M 928.797 467.711 C 931.473 468.154 961.294 488.992 966.687 492.432 C 967.513 500.753 968.768 509.622 969.794 517.97 C 948.802 531.48 926.158 544.616 904.625 557.397 L 897.871 561.656 C 887.285 543.617 878.047 528.068 866.147 510.924 C 885.383 496.684 908.611 480.491 928.797 467.711 z"/>
<path transform="translate(0,0)" fill="rgb(231,237,242)" d="M 816.779 898.823 C 824.227 898.647 832.152 898.87 839.64 898.97 C 850.294 923.244 861.996 925.026 886.068 923.549 C 884.563 929.292 882.017 936.118 880.059 941.824 L 871.316 965.498 C 853.485 956.17 835.267 946.655 816.771 938.71 C 812.082 936.594 802.624 938.26 798.335 936.272 C 778.43 927.045 753.795 918.736 734.878 907.95 C 739.937 903.535 743.265 901.147 749.707 899.308 C 766.05 899.037 782.395 898.964 798.74 899.088 C 800.361 902.786 802.546 910.231 806.467 910.925 C 807.427 907.174 805.177 904.463 803.174 900.326 L 803.938 899.176 C 816.013 898.647 812.595 900.527 820.855 909.196 L 822.04 909.119 C 821.718 905.188 819.068 902.149 816.779 898.823 z"/>
<path transform="translate(0,0)" fill="rgb(231,237,242)" d="M 1223.28 895.353 C 1237.78 896.793 1248.22 898.547 1260.76 889.101 C 1269.75 882.331 1270.16 869.437 1274.49 866.674 C 1280.55 867.17 1297.63 891.209 1302.26 897.11 C 1284.78 907.212 1265.25 918.234 1247.18 927.151 C 1244.87 931.816 1241.93 938.414 1238.12 941.683 C 1222.18 955.336 1200.63 968.322 1182.97 980.199 C 1182.61 964.342 1185.33 955.496 1194.61 942.259 C 1196.62 939.389 1198.89 935.231 1201.58 933.096 C 1204.46 934.026 1210.52 935.605 1213.47 935.313 C 1210.15 932.748 1205.44 929.917 1203.79 926.435 C 1206.1 922.31 1215.18 925.659 1221.63 922.816 L 1221.31 921.574 L 1218.54 920.863 C 1215.38 920.505 1213.58 920.536 1210.74 919.074 C 1210.53 916.126 1212.06 914.941 1213.94 911.938 C 1218.56 912.748 1224.74 913.915 1229.15 911.855 C 1226.2 909.316 1219.2 909.274 1214.99 908.853 L 1223.28 895.353 z"/>
<path transform="translate(0,0)" fill="rgb(251,169,153)" d="M 1176.1 559.072 C 1177.72 559.151 1181.34 559.009 1181.77 560.08 C 1185.1 568.443 1198.71 601.482 1199.72 608.637 C 1198.45 612.373 1199.39 611.205 1196.38 613.251 C 1194.64 613.137 1191.91 613.077 1191.16 611.103 C 1188.8 604.862 1183.22 592.991 1181.41 587.268 L 1179.8 586.667 C 1174.59 592.53 1199.26 619.747 1183.21 624.88 C 1174.93 621.804 1172.01 594.662 1164.64 589.977 C 1160.4 595.756 1179.53 621.897 1176.21 630.423 C 1173.12 633.188 1174.62 632.41 1170.44 633.253 C 1162.1 629.681 1159.29 601.962 1150.51 595.753 C 1148.82 601.07 1163.14 627.57 1163.96 635.197 C 1163.37 636.139 1162.87 636.926 1162.47 637.556 C 1158.88 639.233 1160.43 638.994 1156.62 638.611 C 1147.13 632.626 1144.15 603.659 1137.16 600.011 L 1135.85 600.929 C 1134.95 610.687 1145.63 613.356 1132.54 620.889 C 1128.31 618.032 1123.4 594.192 1124.58 589.145 C 1127.87 582.851 1131.1 570.844 1133.29 563.635 C 1146.53 562.45 1163.06 561.122 1176.1 559.072 z"/>
<path transform="translate(0,0)" fill="rgb(251,169,153)" d="M 864.684 515.839 C 869.642 520.975 890.103 556.047 894.79 564 C 886.534 571.68 849.158 607.328 841.218 606.495 C 831.853 595.368 867.433 578.07 871.588 566.197 C 859.177 570.249 835.513 602.373 826.171 600.675 C 822.323 595.29 825.46 590.774 829.297 586.944 C 835.727 580.735 859.302 561.37 861.021 554.861 C 855.042 554.543 824.871 590.278 817.038 590.626 C 814.146 589.167 815.142 590.064 813.474 586.682 C 813.559 573.995 844.768 556.21 854.061 544.722 L 853.853 543.609 C 849.985 544.959 830.416 561.844 826.485 551.311 C 828.028 543.4 856.327 523.208 864.684 515.839 z"/>
<path transform="translate(0,0)" fill="rgb(239,91,91)" d="M 1249.76 929.74 C 1266.33 921.357 1289.53 907.356 1304.49 900.712 L 1306.63 901.623 C 1311.6 907.881 1312.59 910.847 1307.45 917.176 L 1303.15 920.59 C 1294.38 925.322 1286.78 932.759 1277.55 936.498 C 1275.07 937.503 1274.87 934.818 1270.87 933.728 C 1266.12 934.592 1260.84 938.602 1256.65 941.332 C 1255.84 945.067 1255.29 948.967 1254.7 952.749 C 1238.14 965.563 1217.11 978.095 1199.61 990.001 C 1196 992.453 1187.61 990.615 1185.45 985.822 C 1187.29 976.905 1233.28 955.186 1241.22 943.943 C 1245.45 937.947 1246.22 936.528 1249.76 929.74 z"/>
<path transform="translate(0,0)" fill="rgb(239,91,91)" d="M 732.78 911.484 C 753.229 921.209 776.302 930.942 797.255 939.777 C 801.027 941.367 811.647 940.293 817.176 942.673 C 834.932 950.319 852.985 959.775 869.925 969.073 C 868.565 973.563 867.676 977.071 865.444 981.199 L 863.643 981.532 C 856.449 978.105 826.535 967.646 824.367 963.832 L 825.696 960.334 C 824.076 957.509 811.839 952.935 807.926 951.255 L 800.948 955.518 C 790.76 951.662 737.046 931.19 732.078 926.144 C 729.458 920.607 731 917.13 732.78 911.484 z"/>
<path transform="translate(0,0)" fill="rgb(231,237,242)" d="M 1257.1 849.752 C 1260.18 850.775 1266.48 863.236 1269.04 867.229 C 1265.34 876.177 1262.65 884.394 1253.77 889.659 C 1248.17 892.977 1237.8 894.196 1231.77 892.392 C 1219.54 891.278 1223.13 889.765 1214.98 880.001 L 1257.1 849.752 z"/>
<path transform="translate(0,0)" fill="rgb(231,237,242)" d="M 847.756 880.667 C 861.342 887.014 879.262 892.755 894.001 899.059 C 891.778 906.637 890.417 912.135 887.274 919.696 C 863.22 921.409 854.395 920.736 842.61 897.27 C 844.37 891.015 845.731 886.784 847.756 880.667 z"/>
<path transform="translate(0,0)" fill="rgb(251,169,153)" d="M 822.919 551.722 C 825.691 553.584 824.393 554.234 826.722 556.323 C 827.898 557.378 831.039 557.622 831.927 558.718 C 831.356 559.903 813.94 576.112 811.606 578.277 C 806.295 580.827 803.211 577.035 803.415 572.485 C 803.692 566.311 818.587 555.681 822.919 551.722 z"/>
<path transform="translate(0,0)" fill="rgb(231,237,242)" d="M 1123.03 534.457 C 1125.98 544.199 1126.64 552.826 1130.29 562.152 C 1129.14 566.19 1126.45 572.166 1124.94 576.96 C 1121.53 565.02 1119.35 555.687 1116.56 543.662 L 1121 537.497 C 1121.79 536.386 1122.32 535.628 1123.03 534.457 z"/>
</svg>